<svg width="86" height="32" viewBox="0 0 86 32" fill="none" xmlns="http://www.w3.org/2000/svg">
<g clip-path="url(#clip0_2449_19307)">
<path d="M28.8103 29.73C28.4983 29.4684 28.0543 29.2884 27.6463 29.2308C26.2543 29.0364 24.8526 28.8324 23.451 28.7916C22.6614 28.77 22.1598 28.518 21.6869 27.9179C19.4525 25.0883 18.7349 21.781 18.6173 18.2913C18.5165 15.2912 18.5069 12.2888 18.3821 9.28868C18.3197 7.80304 18.1109 6.34861 19.2053 5.07657C19.6085 4.60856 19.3829 4.05175 18.8861 3.70134C18.4397 3.38693 17.7628 3.57414 17.4556 4.10215C17.0764 4.75497 16.7452 5.43658 16.3876 6.1014C16.2244 6.40621 16.0468 6.70141 15.778 7.16943C15.6556 5.70059 15.5524 4.46936 15.4516 3.24053C15.358 2.1005 14.8636 1.64449 13.7019 1.63489C13.2867 1.63249 12.8715 1.63489 12.4491 1.63489C12.4323 1.37808 12.4179 1.25328 12.4155 1.12848C12.3915 0.0316477 12.3579 0.000446935 11.2299 -0.00195312C10.2963 -0.00195312 9.36264 -0.00195312 8.42901 -0.00195312C7.01538 -0.00195312 7.01538 -0.00195312 6.89298 1.40448C6.88578 1.47168 6.82817 1.53169 6.76817 1.64449C6.43216 1.64449 6.08176 1.64449 5.73135 1.64449C4.38731 1.64689 3.9505 2.0213 3.8425 3.34613C3.61689 6.135 3.40809 8.92867 3.20168 11.7199C2.86328 16.2465 2.52487 20.773 2.20086 25.3019C2.11686 26.4683 2.65687 27.0107 3.8521 27.0299C4.40171 27.0395 4.95133 27.0323 5.57534 27.0323C5.57534 27.3875 5.58734 27.6611 5.57294 27.9299C5.54174 28.5588 5.80575 28.8564 6.46097 28.8516C8.63062 28.8348 10.8003 28.8396 12.9699 28.8468C13.5411 28.8492 13.8147 28.6116 13.7811 28.0283C13.7643 27.7139 13.7787 27.3971 13.7787 27.0155C14.4988 27.0155 15.1012 27.0347 15.7012 27.0107C16.6876 26.9699 17.2444 26.3603 17.17 25.3907C16.8148 20.713 16.498 16.0328 16.054 11.3623C16.066 9.52868 16.8508 9.17588 17.4148 8.15585C17.734 8.38146 17.686 15.416 17.8349 18.8433C17.9525 21.5314 18.3989 24.1619 19.7909 26.5331C20.2181 27.2627 20.6957 27.9611 21.1877 28.7364C21.0077 28.7556 20.8925 28.7748 20.7749 28.782C14.1028 29.1588 7.43059 29.5308 0.760823 29.9244C0.492016 29.9412 0.0240043 30.1452 0.00960397 30.2988C-0.0431974 30.8172 0.420014 30.762 0.765623 30.75C2.63047 30.6828 4.49772 30.6348 6.36016 30.5244C11.3187 30.2316 16.2772 29.9148 21.2333 29.5908C21.8021 29.5524 22.1982 29.7684 22.6662 30.0708C23.6502 30.7044 24.6894 31.2852 25.7742 31.722C26.6935 32.0916 27.7255 32.1084 28.6495 31.6524C28.9903 31.4844 29.3911 31.0788 29.4199 30.75C29.4415 30.426 29.1055 29.9796 28.8103 29.73ZM15.0364 11.9383C15.0628 12.4976 15.0916 13.0376 15.1228 13.6928C14.7388 13.5968 14.4388 13.5224 14.0524 13.424C14.41 12.86 14.698 12.404 15.0004 11.9287C15.0196 11.9335 15.0196 11.9335 15.0364 11.9383ZM14.8612 8.49186C14.6044 9.10867 14.3716 9.87189 14.0788 10.5703C13.3083 10.3663 11.7459 9.9607 11.7363 9.89829C12.6627 9.44708 14.5996 8.38626 14.8612 8.49186ZM13.4283 11.5735C13.0683 12.3632 12.7779 13.0232 12.7779 13.0232C12.7779 13.0232 12.1131 12.8432 11.4243 12.6584C10.7235 12.4712 9.00983 12.1159 8.97623 12.0847C9.55944 11.3167 10.5387 10.7815 10.5387 10.7815C10.5387 10.7815 11.2131 10.9711 11.6475 11.0839C12.2259 11.2399 12.8019 11.4031 13.4283 11.5735ZM14.6524 7.34463C14.6524 7.34463 14.4316 7.35903 14.2756 7.42143C10.4835 8.95987 7.7762 11.7223 7.7762 11.7223C7.7762 11.7223 6.77297 11.4295 6.16336 11.2903C8.41701 8.61186 11.1099 6.72061 14.5996 5.57339C14.6476 6.0606 14.6524 7.34463 14.6524 7.34463ZM4.91053 2.76052H5.89935L4.91053 3.54294V2.76052ZM4.80732 5.05257C4.80732 5.05257 5.10973 4.66856 5.29694 4.50776C6.31696 3.64614 8.03541 2.76052 8.03541 2.76052C8.03541 2.76052 10.6539 2.76052 11.2131 2.76052C8.86823 4.01095 6.94098 5.26138 4.70172 7.03262C4.73052 6.61021 4.80732 5.05257 4.80732 5.05257ZM4.54572 8.70066C6.96258 6.61741 10.5435 4.18855 13.5723 3.16853C13.7139 3.12052 14.3812 2.97892 14.446 2.97172C14.4916 3.01972 14.4988 4.48136 14.4988 4.48136C14.4988 4.48136 14.2036 4.58936 13.2195 4.97097C10.1691 6.1566 7.50259 7.92544 5.23933 10.2895C5.19853 10.3327 4.54812 10.9423 4.54812 10.9423V8.70066H4.54572ZM4.34651 12.1063C5.21533 12.3056 6.01455 12.4712 6.80417 12.6776C9.16823 13.292 11.5251 13.9232 13.8868 14.5496C14.4844 14.708 15.3292 14.9528 15.3292 14.9528C15.3292 14.9528 15.3484 15.632 15.3292 16.6473C11.6259 15.6392 7.9562 14.6384 4.23611 13.6256C4.27211 13.1144 4.30571 12.6704 4.34651 12.1063ZM4.07771 14.7944C7.7354 15.7616 11.4843 16.7697 15.0772 17.7441C15.2548 17.7921 15.5908 17.8689 15.5908 17.8689C15.5908 17.8689 15.5188 19.0377 15.5188 19.5321C14.254 19.1985 13.0011 18.8745 11.7507 18.5361C9.56424 17.9409 7.38019 17.3289 5.19373 16.7337C4.62252 16.5777 4.07531 16.4649 4.07531 16.4649C4.07531 16.4649 4.07771 15.7328 4.07771 14.7944ZM3.9745 17.6865C5.84415 18.1617 7.61779 18.6081 9.44184 19.0713C9.33384 19.3353 9.20183 19.5321 9.18503 19.7385C9.17063 19.9089 9.24744 20.1706 9.36984 20.2402C9.47784 20.3026 9.75625 20.209 9.87145 20.0938C10.6899 19.2849 10.7259 19.2729 11.8947 19.8345C11.5107 20.1874 10.6395 21.0994 10.6395 21.0994C10.6395 21.0994 10.3443 21.0082 10.1595 20.9602C8.19141 20.437 5.82015 19.9065 3.8665 19.3281C3.8689 19.3281 3.9145 18.1065 3.9745 17.6865ZM3.7033 20.4682C4.32731 20.6338 5.63054 20.9338 5.64014 20.9962C5.08093 21.241 4.32731 21.5962 3.7033 21.8698V20.4682ZM3.49209 24.7451C3.50409 23.965 3.50409 23.2858 3.50409 23.2858C3.50409 23.2858 4.05611 23.0458 4.56012 22.8298C5.11453 22.5946 5.65695 22.3114 6.17776 22.0378C6.75617 21.733 7.46659 21.4306 7.41139 21.4114C7.45699 21.421 8.67142 21.6994 9.29544 21.9562C7.49539 23.2402 5.59454 24.1259 3.49209 24.7451ZM7.8794 25.9955C7.8794 25.9955 5.57774 25.8731 4.32011 25.8683C5.28494 25.4363 6.10336 25.0883 6.90498 24.7019C8.87063 23.761 10.7019 22.5874 12.2163 21.0274C12.5571 20.6746 13.3515 20.0025 13.3515 20.0025C13.3515 20.0025 14.0812 20.3674 14.854 20.6194C13.3419 22.3306 11.5563 23.6434 9.73945 24.9563C9.13703 25.3931 7.8794 25.9955 7.8794 25.9955ZM13.0899 25.9427C13.0899 25.9427 11.5275 25.9427 10.5315 25.8923C13.1931 23.8066 15.7972 21.4618 15.7972 21.4618L15.85 23.4946C15.85 23.4946 15.4492 23.9026 14.9932 24.3131C14.638 24.6323 13.0899 25.9427 13.0899 25.9427ZM15.9556 25.8395L14.938 25.8683C14.938 25.8683 15.6724 25.2587 15.9556 25.0043C15.9556 25.5275 15.9556 25.8395 15.9556 25.8395ZM17.3548 6.42781C17.3548 6.62941 17.2708 6.83582 17.1964 7.02782C17.1868 7.05422 16.8988 7.02302 16.8916 6.98942C16.8532 6.78062 16.7932 6.54061 16.8556 6.34861C17.098 5.61419 17.4388 4.93737 18.4397 4.51256C18.3893 5.03577 18.3581 5.35978 18.3245 5.69339C17.3764 5.48698 17.3476 5.51819 17.3548 6.42781ZM23.4558 29.538C25.3086 29.7036 27.0535 29.5644 28.6207 30.5916C27.5191 31.5372 24.9222 31.0116 23.4558 29.538Z" fill="#FF6930"/>
</g>
<path d="M35.5671 22V10.752H37.7431V22H35.5671ZM37.1671 22V20.08H43.3911V22H37.1671ZM37.1671 17.184V15.328H42.8311V17.184H37.1671ZM37.1671 12.672V10.752H43.3111V12.672H37.1671ZM47.4001 22.064L44.1681 14.272H46.4401L48.5841 20.224H47.8161L50.0401 14.272H52.3281L48.8881 22.048L47.4001 22.064ZM45.2561 25.232L47.6081 20.256L48.8881 22.048L47.4801 25.232H45.2561ZM53.1713 22V14.272H55.2833V22H53.1713ZM54.2273 13.024C53.8859 13.024 53.6033 12.912 53.3793 12.688C53.1553 12.4533 53.0433 12.1653 53.0433 11.824C53.0433 11.4933 53.1553 11.2107 53.3793 10.976C53.6033 10.7413 53.8859 10.624 54.2273 10.624C54.5793 10.624 54.8619 10.7413 55.0753 10.976C55.2993 11.2107 55.4113 11.4933 55.4113 11.824C55.4113 12.1653 55.2993 12.4533 55.0753 12.688C54.8619 12.912 54.5793 13.024 54.2273 13.024ZM59.796 22.176C59.3587 22.176 58.9267 22.1173 58.5 22C58.084 21.8827 57.7 21.7227 57.348 21.52C56.996 21.3067 56.692 21.0507 56.436 20.752L57.684 19.488C57.9507 19.7867 58.26 20.0107 58.612 20.16C58.964 20.3093 59.3533 20.384 59.78 20.384C60.1213 20.384 60.3773 20.336 60.548 20.24C60.7293 20.144 60.82 20 60.82 19.808C60.82 19.5947 60.724 19.4293 60.532 19.312C60.3507 19.1947 60.1107 19.0987 59.812 19.024C59.5133 18.9387 59.1987 18.848 58.868 18.752C58.548 18.6453 58.2387 18.512 57.94 18.352C57.6413 18.1813 57.396 17.952 57.204 17.664C57.0227 17.3653 56.932 16.9813 56.932 16.512C56.932 16.0213 57.0493 15.5947 57.284 15.232C57.5293 14.8693 57.876 14.5867 58.324 14.384C58.772 14.1813 59.3 14.08 59.908 14.08C60.548 14.08 61.124 14.192 61.636 14.416C62.1587 14.64 62.5907 14.976 62.932 15.424L61.668 16.688C61.4333 16.4 61.1667 16.192 60.868 16.064C60.58 15.936 60.2653 15.872 59.924 15.872C59.6147 15.872 59.3747 15.92 59.204 16.016C59.044 16.112 58.964 16.2453 58.964 16.416C58.964 16.608 59.0547 16.7573 59.236 16.864C59.428 16.9707 59.6733 17.0667 59.972 17.152C60.2707 17.2267 60.58 17.3173 60.9 17.424C61.2307 17.52 61.54 17.6587 61.828 17.84C62.1267 18.0213 62.3667 18.2613 62.548 18.56C62.74 18.8587 62.836 19.2427 62.836 19.712C62.836 20.4693 62.564 21.072 62.02 21.52C61.476 21.9573 60.7347 22.176 59.796 22.176ZM64.2494 22V14.272H66.3614V22H64.2494ZM65.3054 13.024C64.964 13.024 64.6814 12.912 64.4574 12.688C64.2334 12.4533 64.1214 12.1653 64.1214 11.824C64.1214 11.4933 64.2334 11.2107 64.4574 10.976C64.6814 10.7413 64.964 10.624 65.3054 10.624C65.6574 10.624 65.94 10.7413 66.1534 10.976C66.3774 11.2107 66.4894 11.4933 66.4894 11.824C66.4894 12.1653 66.3774 12.4533 66.1534 12.688C65.94 12.912 65.6574 13.024 65.3054 13.024ZM71.8501 22.16C71.0715 22.16 70.3675 21.984 69.7381 21.632C69.1195 21.2693 68.6235 20.784 68.2501 20.176C67.8875 19.5573 67.7061 18.8693 67.7061 18.112C67.7061 17.3547 67.8875 16.6773 68.2501 16.08C68.6128 15.472 69.1088 14.992 69.7381 14.64C70.3675 14.2773 71.0661 14.096 71.8341 14.096C72.6235 14.096 73.3275 14.2773 73.9461 14.64C74.5755 14.992 75.0715 15.472 75.4341 16.08C75.7968 16.6773 75.9781 17.3547 75.9781 18.112C75.9781 18.8693 75.7968 19.5573 75.4341 20.176C75.0715 20.784 74.5755 21.2693 73.9461 21.632C73.3275 21.984 72.6288 22.16 71.8501 22.16ZM71.8341 20.208C72.2288 20.208 72.5755 20.1227 72.8741 19.952C73.1835 19.7707 73.4181 19.5253 73.5781 19.216C73.7488 18.896 73.8341 18.5333 73.8341 18.128C73.8341 17.7227 73.7488 17.3653 73.5781 17.056C73.4075 16.7467 73.1728 16.5067 72.8741 16.336C72.5755 16.1547 72.2288 16.064 71.8341 16.064C71.4501 16.064 71.1088 16.1547 70.8101 16.336C70.5115 16.5067 70.2768 16.7467 70.1061 17.056C69.9355 17.3653 69.8501 17.7227 69.8501 18.128C69.8501 18.5333 69.9355 18.896 70.1061 19.216C70.2768 19.5253 70.5115 19.7707 70.8101 19.952C71.1088 20.1227 71.4501 20.208 71.8341 20.208ZM82.5275 22V17.568C82.5275 17.1093 82.3835 16.736 82.0955 16.448C81.8075 16.16 81.4342 16.016 80.9755 16.016C80.6768 16.016 80.4102 16.08 80.1755 16.208C79.9408 16.336 79.7542 16.5173 79.6155 16.752C79.4875 16.9867 79.4235 17.2587 79.4235 17.568L78.6075 17.152C78.6075 16.544 78.7355 16.016 78.9915 15.568C79.2582 15.1093 79.6208 14.752 80.0795 14.496C80.5488 14.24 81.0768 14.112 81.6635 14.112C82.2288 14.112 82.7355 14.256 83.1835 14.544C83.6315 14.8213 83.9835 15.1893 84.2395 15.648C84.4955 16.096 84.6235 16.5813 84.6235 17.104V22H82.5275ZM77.3275 22V14.272H79.4235V22H77.3275Z" fill="#1F1F1F"/>
<defs>
<clipPath id="clip0_2449_19307">
<rect width="29.4151" height="32" fill="white"/>
</clipPath>
</defs>
</svg>
